<?xml version="1.0" standalone="no"?>
<!DOCTYPE svg PUBLIC "-//W3C//DTD SVG 20010904//EN"
 "http://www.w3.org/TR/2001/REC-SVG-20010904/DTD/svg10.dtd">
<svg version="1.0" xmlns="http://www.w3.org/2000/svg"
 width="51.000000pt" height="53.000000pt" viewBox="0 0 51.000000 53.000000"
 preserveAspectRatio="xMidYMid meet">

<g transform="translate(0.000000,53.000000) scale(0.100000,-0.100000)"
fill="#000000" stroke="none">
<path d="M110 453 c1 -5 14 -24 30 -43 17 -19 30 -38 30 -42 0 -4 -31 -8 -70
-8 -38 0 -70 -3 -70 -7 0 -5 20 -30 44 -57 l43 -50 46 40 c37 30 46 44 42 62
-5 21 -3 22 60 22 42 0 64 -4 60 -10 -3 -5 -44 -42 -91 -81 -73 -61 -83 -73
-74 -90 6 -10 16 -19 23 -19 7 0 49 32 94 70 45 39 84 70 88 70 8 0 -3 -109
-12 -123 -3 -5 -12 -2 -21 6 -15 14 -22 11 -66 -28 l-48 -43 43 -56 c24 -30
47 -55 50 -55 3 -1 11 31 18 69 7 39 17 70 21 70 5 0 21 -16 36 -35 15 -20 29
-34 31 -31 7 7 70 366 65 371 -9 8 -372 6 -372 -2z"/>
<path d="M503 150 c0 -25 2 -35 4 -22 2 12 2 32 0 45 -2 12 -4 2 -4 -23z"/>
</g>
</svg>
